<?xml version="1.0" standalone="no"?>
<!DOCTYPE svg PUBLIC "-//W3C//DTD SVG 20010904//EN"
 "http://www.w3.org/TR/2001/REC-SVG-20010904/DTD/svg10.dtd">
<svg version="1.0" xmlns="http://www.w3.org/2000/svg"
 width="280.000000pt" height="280.000000pt" viewBox="0 0 280.000000 280.000000"
 preserveAspectRatio="xMidYMid meet">
<metadata>
Created by potrace 1.14, written by Peter Selinger 2001-2017
</metadata>
<g transform="translate(0.000000,280.000000) scale(0.100000,-0.100000)"
fill="#000000" stroke="none">
<path d="M1416 2762 c-2 -1 -50 -4 -107 -6 -57 -3 -115 -7 -129 -11 -27 -7
-57 -13 -92 -19 -36 -6 -112 -27 -123 -34 -5 -4 -14 -7 -20 -7 -25 -1 -134
-48 -129 -56 3 -5 -1 -6 -9 -3 -8 3 -21 -2 -30 -10 -8 -8 -17 -12 -21 -9 -3 4
-6 1 -6 -5 0 -6 -13 -13 -29 -17 -16 -3 -32 -13 -35 -22 -4 -9 -9 -13 -13 -10
-3 4 -17 -5 -30 -19 -12 -14 -23 -20 -23 -14 0 6 -12 -2 -26 -17 -14 -15 -22
-21 -18 -13 4 8 -9 -1 -28 -20 -19 -19 -33 -39 -30 -44 3 -5 0 -6 -5 -3 -11 7
-63 -36 -63 -52 0 -5 -10 -11 -22 -13 -13 -2 -24 -9 -24 -15 -1 -7 -2 -18 -3
-25 0 -6 -4 -9 -7 -5 -6 6 -84 -86 -84 -99 0 -4 -9 -15 -21 -25 -11 -10 -22
-25 -23 -33 -1 -9 -11 -23 -22 -32 -10 -8 -14 -13 -7 -10 8 5 8 0 0 -19 -7
-14 -18 -25 -24 -25 -7 0 -12 -3 -11 -7 3 -15 -14 -43 -23 -37 -5 3 -6 -3 -2
-12 4 -10 2 -15 -4 -11 -5 3 -10 0 -11 -8 -1 -8 -3 -22 -4 -30 -1 -8 -5 -12
-9 -9 -5 3 -11 -8 -15 -23 -4 -15 -12 -31 -18 -35 -7 -5 -7 -8 2 -8 7 0 10 -5
7 -10 -4 -6 -11 -7 -17 -4 -6 4 -5 -2 1 -15 10 -17 9 -22 -4 -27 -9 -4 -13
-15 -11 -30 3 -13 -2 -31 -10 -39 -10 -9 -11 -15 -4 -15 7 0 5 -7 -4 -16 -9
-8 -14 -19 -11 -24 3 -5 1 -20 -5 -34 -7 -19 -6 -26 3 -26 6 -1 1 -10 -13 -22
-15 -13 -18 -19 -8 -15 12 4 15 2 11 -9 -3 -7 -9 -14 -13 -14 -4 0 -8 -49 -7
-108 0 -60 -3 -114 -7 -120 -4 -7 -4 -12 1 -12 4 0 7 -15 7 -32 -1 -18 4 -39
10 -47 9 -12 8 -13 -4 -6 -12 7 -13 6 -4 -6 6 -8 10 -22 9 -32 -2 -9 1 -14 7
-11 5 3 8 -2 7 -12 -2 -11 0 -24 4 -31 4 -6 3 -14 -3 -18 -5 -3 -10 -12 -10
-18 0 -8 3 -7 9 2 6 9 9 1 10 -25 1 -51 5 -72 16 -81 4 -4 5 -2 0 6 -5 9 -4
12 2 8 6 -4 9 -22 7 -42 -1 -19 1 -35 5 -35 5 0 7 -11 6 -25 -2 -13 3 -29 11
-36 8 -6 14 -21 14 -33 0 -12 9 -27 19 -33 13 -8 18 -21 17 -38 -2 -14 1 -28
7 -32 6 -4 7 -1 3 8 -4 8 -1 6 7 -3 8 -10 18 -14 22 -10 4 4 5 -3 2 -16 -3
-15 1 -26 14 -35 10 -8 16 -17 12 -20 -3 -4 -1 -7 5 -7 7 0 12 -6 12 -14 0 -8
7 -17 16 -20 14 -5 14 -9 3 -23 -8 -9 -9 -14 -4 -11 12 7 37 -17 28 -26 -4 -3
-1 -6 6 -6 7 0 9 -4 6 -10 -3 -5 1 -10 9 -10 14 0 20 -12 17 -32 0 -5 9 -8 21
-8 17 0 19 -3 9 -9 -11 -7 -9 -10 7 -15 13 -4 19 -13 15 -22 -3 -8 1 -14 9
-14 20 0 52 -36 43 -49 -4 -7 1 -8 12 -4 10 3 15 2 10 -2 -10 -12 32 -55 48
-48 8 2 22 -1 32 -7 17 -11 17 -11 0 -6 -11 3 -15 2 -12 -4 3 -6 15 -10 26
-10 10 0 19 -7 19 -15 0 -9 7 -18 15 -21 8 -4 12 -10 9 -15 -3 -5 3 -6 12 -2
12 4 15 3 10 -5 -5 -8 0 -12 13 -12 12 0 21 -5 21 -11 0 -5 -5 -7 -12 -3 -7 4
-8 3 -4 -5 6 -9 11 -9 22 0 11 9 14 8 14 -5 0 -14 11 -21 33 -17 4 0 7 -4 7
-10 0 -5 4 -7 10 -4 6 3 10 -1 10 -9 0 -9 7 -13 20 -11 14 3 20 -2 20 -13 0
-15 2 -15 10 -2 5 8 10 10 10 5 0 -6 9 -16 21 -23 12 -8 18 -9 15 -3 -4 6 6 4
20 -4 15 -8 31 -12 35 -10 4 3 12 -1 18 -9 7 -8 21 -12 31 -9 12 3 20 0 20 -6
0 -7 4 -9 10 -6 5 3 22 -2 37 -12 21 -14 25 -15 19 -3 -7 12 -6 12 4 3 7 -6
19 -9 28 -6 9 4 13 2 9 -3 -3 -6 7 -9 24 -8 16 1 29 -1 29 -5 0 -10 7 -11 122
-14 54 -2 101 -7 105 -10 3 -4 12 -2 20 4 10 9 13 8 13 -2 0 -9 3 -10 8 -4 4
6 43 11 87 11 111 2 165 8 165 17 0 5 5 5 10 2 6 -3 10 -2 10 3 0 5 18 8 40 7
22 -1 40 2 40 8 0 6 3 7 7 4 3 -4 13 -1 21 6 9 7 13 7 9 1 -3 -6 10 -3 31 7
20 10 50 20 65 23 16 3 34 10 41 15 7 6 16 8 19 4 4 -3 7 -1 7 5 0 6 7 9 16 5
10 -4 20 0 25 10 5 9 18 14 29 12 11 -2 18 0 15 4 -4 7 29 22 44 20 2 -1 9 7
14 16 8 14 11 15 18 4 7 -11 9 -11 9 3 0 9 5 20 12 24 7 4 8 3 4 -4 -14 -24
23 0 39 24 9 14 20 22 24 19 5 -2 8 3 7 13 0 10 6 16 16 16 10 -1 16 1 14 5
-2 3 10 18 25 33 16 15 29 25 29 22 0 -3 14 7 31 23 17 15 42 38 55 51 14 12
29 20 35 17 5 -3 6 1 3 9 -4 9 1 18 10 22 9 3 13 10 10 15 -3 5 0 9 6 9 6 0 9
4 5 9 -3 5 3 16 13 23 11 7 32 36 47 65 16 29 33 49 38 46 6 -4 7 -1 3 6 -5 7
0 19 10 27 11 9 12 12 5 8 -9 -5 -6 5 7 23 12 17 22 36 22 43 0 6 6 8 13 4 6
-4 9 -4 5 1 -4 4 -1 22 7 40 7 19 11 36 8 39 -3 3 1 8 10 12 9 3 14 14 12 25
-2 10 1 19 6 19 6 0 7 5 4 11 -4 5 1 20 12 31 10 12 12 18 6 14 -18 -10 -16 2
3 21 13 13 13 17 2 24 -10 7 -10 9 0 9 6 0 12 7 12 16 0 9 6 14 13 11 9 -3 13
13 15 57 1 33 7 63 12 64 6 2 8 8 4 13 -3 5 0 9 6 9 6 0 8 5 5 10 -4 6 -12 7
-18 3 -7 -3 -3 4 8 17 11 13 14 20 6 15 -10 -6 -12 -4 -5 6 10 17 13 48 14
154 0 89 -2 104 -14 124 -7 11 -6 12 5 6 12 -8 12 -6 0 8 -7 9 -11 23 -8 31 3
8 3 17 -1 21 -3 3 -7 24 -9 45 -1 22 -12 61 -24 87 -12 26 -22 52 -24 58 -1 5
-7 22 -13 36 -5 14 -13 41 -16 60 -3 18 -10 35 -16 37 -5 2 -8 8 -4 13 3 5 0
9 -5 9 -6 0 -10 3 -9 8 4 14 -13 52 -24 52 -5 0 -8 7 -4 15 3 8 1 15 -4 15 -6
0 -10 7 -10 15 0 8 -5 15 -11 15 -5 0 -7 5 -4 10 3 6 2 10 -3 10 -9 0 -25 37
-23 53 1 4 -4 7 -9 7 -6 0 -10 7 -10 15 0 8 -4 15 -10 15 -5 0 -10 7 -10 15 0
8 -4 15 -10 15 -5 0 -10 5 -10 10 0 6 -13 24 -30 40 -16 16 -30 33 -30 37 0 4
-14 19 -32 33 -17 14 -50 43 -73 66 -23 22 -49 44 -59 47 -9 4 -14 11 -11 17
3 5 -5 15 -19 21 -14 7 -23 16 -19 22 3 6 1 7 -5 3 -6 -3 -18 1 -26 10 -9 8
-16 12 -16 7 0 -4 -6 -1 -13 9 -7 9 -33 26 -57 39 -25 13 -48 27 -51 31 -3 5
-17 11 -31 13 -14 3 -47 15 -74 27 -27 12 -56 23 -64 24 -8 2 -16 8 -18 14 -2
5 -8 8 -13 4 -5 -3 -9 -1 -9 5 0 6 -7 8 -15 5 -8 -4 -21 -2 -28 4 -14 11 -78
33 -110 37 -12 1 -38 6 -57 10 -19 4 -50 8 -67 9 -18 0 -33 3 -33 6 0 5 -69 7
-74 2z m-1289 -1837 c0 -8 -4 -12 -9 -9 -5 3 -6 10 -3 15 9 13 12 11 12 -6z
m364 -542 c13 -16 12 -17 -3 -4 -17 13 -22 21 -14 21 2 0 10 -8 17 -17z"/>
<path d="M400 456 c0 -2 8 -10 18 -17 15 -13 16 -12 3 4 -13 16 -21 21 -21 13z"/>
<path d="M875 130 c-3 -5 -1 -10 4 -10 6 0 11 5 11 10 0 6 -2 10 -4 10 -3 0
-8 -4 -11 -10z"/>
</g>
</svg>
